<svg id="Layer_1" data-name="Layer 1" xmlns="http://www.w3.org/2000/svg" xmlns:xlink="http://www.w3.org/1999/xlink" viewBox="0 0 732.75 407.69"><defs><style>.cls-1{fill:none;}.cls-2{font-size:44.5px;fill:#fff;font-family:HelveticaNeue-BoldItalic, Helvetica Neue;font-weight:700;font-style:italic;letter-spacing:0.05em;}.cls-3{letter-spacing:0.16em;}.cls-4{letter-spacing:0.1em;}.cls-5{letter-spacing:0.16em;}.cls-6{clip-path:url(#clip-path);}.cls-7{fill:url(#linear-gradient);}</style><clipPath id="clip-path"><path class="cls-1" d="M453.49,239.31h0c-.56-.32-1.12-.62-1.69-.91-9.39,10.93-27,30.43-38.6,32.63,0,0-4.78-2.72-9-9.64a2,2,0,0,1-.37-.15,1,1,0,0,1,.3,0c-.38-.63-.75-1.27-1.12-2-3.11-5.87,3.19-.49,12.71-4,10.49-3.85,20.61-12.8,27.24-19.26-.1,0,.37-.29.26-.3a84.06,84.06,0,0,0,14.08-26.38h0a40,40,0,0,0,2.37-13.59A40.78,40.78,0,0,0,457.48,183l-.13-.38-.17-.41a50.34,50.34,0,0,0-11.13-16.45,44.5,44.5,0,0,0-16.66-10.07,45.55,45.55,0,0,0-14.69-2.54,47.44,47.44,0,0,0-23.59,6.61l-.21.12-.2.13a77.74,77.74,0,0,0-31.17,37.14,101.58,101.58,0,0,0-7.86,39,104.83,104.83,0,0,0,1.79,19.17c-.29-.63,1.92,7.82,1.88,7.34,3.78,11.44,11.08,21.58,21.14,29.88a58,58,0,0,0,37.86,13.9c2.14,0,4-.15,5.57-.26l.35,0,.35-.05a70.63,70.63,0,0,0,39.28-18.94,45.82,45.82,0,0,0,8.94-10.39,24.58,24.58,0,0,0,3.78-12.66,22.63,22.63,0,0,0-5.83-14.84C463.29,245.24,458.83,242.14,453.49,239.31Zm-34.27-48.86a48.39,48.39,0,0,1-9.52,19.16c-4.52,5.59-9.64,9.4-15.11,11.42C399.23,208.65,407.44,198.42,419.22,190.45Zm116.3,94.7a43.14,43.14,0,0,1-10.32-21.79l0-.22,0-.25a345.47,345.47,0,0,1-7.88-73c0-11.45.58-23,1.74-34.61l0-.21v-.23c0-.27,0-.52,0-.76l1.09,0h.14q17.49-.7,48.75-1.42h1.43a11.49,11.49,0,0,1,4.69.86h0l.13.05a18.22,18.22,0,0,0,7.19,1.7,13.17,13.17,0,0,0,5.33-1.13,14,14,0,0,0,4.16-2.91,13.49,13.49,0,0,0,4-9.49,15.29,15.29,0,0,0-.8-4.64c-.39-1.18-.83-2.27-1.33-3.42l0-.08-.08-.16a24.69,24.69,0,0,0-5.26-7.44l-.1-.13-.36-.38a47.61,47.61,0,0,0-35.68-15.73h-.29c-8.92.27-17.41.47-25.54.6a48.78,48.78,0,0,1,4-9.08h0a21.13,21.13,0,0,0,3.27-10.84,19.15,19.15,0,0,0-1.91-8.19,28.18,28.18,0,0,0-4.25-6.33h0a1.47,1.47,0,0,0-.1-.13l-.09-.1h0A46.33,46.33,0,0,0,515,65.23h0l-.06,0,0,0h0a39.44,39.44,0,0,0-5.67-2.83,18.72,18.72,0,0,0-6.91-1.44,13.5,13.5,0,0,0-3.35.45c-.72.18-1.32.36-1.95.55h0A12,12,0,0,0,491.91,65a20.43,20.43,0,0,0-3.41,4.69,56.9,56.9,0,0,0-2.45,5.16l0,.11a150.56,150.56,0,0,0-10,37.91l0,.13,0,.18a.41.41,0,0,1,0,.11h-.24l-29.21,2.14h0a21.21,21.21,0,0,0-9.36,2.38,13.24,13.24,0,0,0-4.78,4.52,12.63,12.63,0,0,0-1.89,6.72,15.36,15.36,0,0,0,1.51,6.48,27.42,27.42,0,0,0,2.73,4.55h0l.07.1.08.11h0a45.48,45.48,0,0,0,12.83,12.65,31.21,31.21,0,0,0,16.66,4.87,39,39,0,0,0,5.65-.43h0c.6-.08,1.32-.14,2.13-.18l.1,27.09v0a306.65,306.65,0,0,0,4.18,50.87h0c2.39,17.26,6.76,32.12,13.42,44.49s15.78,22.27,27.1,28.87a26.31,26.31,0,0,0,4.84,2.47,16.64,16.64,0,0,0,6,1.18,13.61,13.61,0,0,0,6-1.36,15.27,15.27,0,0,0,4.6-3.52l.28-.31.27-.36a14.45,14.45,0,0,0,3-8.69,15.14,15.14,0,0,0-2.43-8A26.05,26.05,0,0,0,535.52,285.15Zm134-115.75a46.59,46.59,0,0,0-12.94-11.05l-.08,0-.12-.07a38.42,38.42,0,0,0-5.51-2.7,18.54,18.54,0,0,0-6.61-1.34,13.29,13.29,0,0,0-3.41.47c-.77.2-1.4.41-2,.62a11.81,11.81,0,0,0-4.84,3.15,16.61,16.61,0,0,0-1.33,1.61l-.17-.09-.09,0c-7.59-4.15-15.6-6.66-23.81-6.66-10.93,0-21.24,4.59-30,12.27l-.1.09-.08.07a127.86,127.86,0,0,0-31.26,42.87c-7,15.94-10.51,33.41-10.57,52.08v.18a38,38,0,0,0,11.35,26.76A48.06,48.06,0,0,0,560,297.66a29.67,29.67,0,0,0,14.68,4A28.84,28.84,0,0,0,588.09,298c6.29-3.35,12.41-8.45,19.09-15.3q6.45-6.63,13.57-15.54a102.21,102.21,0,0,0,3.32,15.24l.06.18.07.22a40.42,40.42,0,0,0,9.29,15.15,41.34,41.34,0,0,0,14.72,9.46h0l.07,0,.08,0h0a21.87,21.87,0,0,0,7.87,1.71,13.67,13.67,0,0,0,4.81-.84,12.26,12.26,0,0,0,6.5-5.77A14.12,14.12,0,0,0,669,296a22.93,22.93,0,0,0-.79-5.9h0a108.06,108.06,0,0,1-3-27.18A293.87,293.87,0,0,1,674,191.38v-.06l0-.11a29.57,29.57,0,0,0,.84-6.71A24.68,24.68,0,0,0,669.47,169.4Zm-57,37.59c-6.19,9-12.73,17.85-19.76,26.65s-12.37,14.64-16.3,17.61q1.79-12,9.64-26.41a113.12,113.12,0,0,1,18-25.59c6.78-7.26,13.33-11.06,19.51-11.66C622.31,191.4,618.63,197.94,612.44,207Zm-256.33-9.9,0,.06v-.06ZM256.66,62.93v-.51a40.72,40.72,0,0,0-8-23.19,39.76,39.76,0,0,0-19.35-14h0l-.16-.05-.09,0h0a19.75,19.75,0,0,0-6.52-1.1,13.62,13.62,0,0,0-4.53.74,12.12,12.12,0,0,0-6.5,5.31A13.51,13.51,0,0,0,209.73,37v.47l.05.48c.71,7.1,1,11.9,1,13.44a81,81,0,0,1-3,21.36l-.07.28-.07.32A1029.4,1029.4,0,0,1,160,234.92l0,.1-.05.16a551.63,551.63,0,0,1-36.37,82l-.09.17-.11.21c-.4.82-.82,1.6-1.24,2.38-1.34-4.07-2.45-7.66-3.37-10.75A1491.31,1491.31,0,0,1,83.35,113.32v-.07l0-.2a42.32,42.32,0,0,0-7.48-19.31A39.63,39.63,0,0,0,60.28,81.25a20.69,20.69,0,0,0-10-3,13.35,13.35,0,0,0-5.67,1.25A12.84,12.84,0,0,0,38.39,86a16.72,16.72,0,0,0-1.32,6.78,27.44,27.44,0,0,0,.18,2.79c.68,6.74,3.45,26.37,8.25,59.87q9.34,66.32,25,131.41c4.53,20.61,10.24,37.82,17.44,51.76s16,24.76,26.87,31.76l.06,0,.13.08c5.67,3.42,11.31,5.88,17.8,5.94a41.83,41.83,0,0,0,6-.58l.17,0,.16,0c4.82-1,7.75-3.44,10.7-6.18a71.83,71.83,0,0,0,8.74-10.7v0A206,206,0,0,0,177,326.15,1114.17,1114.17,0,0,0,250.71,107,189.67,189.67,0,0,0,256.66,62.93ZM177,326.21l0-.08v0ZM45.5,155.41h0v0ZM373.05,292.53Zm-41.24-53.22h0c-.57-.32-1.13-.62-1.69-.91-9.4,10.93-27,30.43-38.61,32.63,0,0-4.78-2.72-9-9.64a1.58,1.58,0,0,1-.37-.15,1.06,1.06,0,0,1,.3,0c-.38-.63-.76-1.27-1.13-2-3.11-5.87,3.2-.49,12.72-4,10.49-3.85,20.61-12.8,27.23-19.26-.1,0,.37-.29.27-.3a84.24,84.24,0,0,0,14.07-26.38h0A40,40,0,0,0,338,195.8,40.79,40.79,0,0,0,335.79,183l-.12-.38-.18-.41a50.34,50.34,0,0,0-11.13-16.45,44.5,44.5,0,0,0-16.66-10.07A45.55,45.55,0,0,0,293,153.12a47.44,47.44,0,0,0-23.59,6.61l-.21.12L269,160a77.71,77.71,0,0,0-31.18,37.14,101.58,101.58,0,0,0-7.86,39,106.62,106.62,0,0,0,1.79,19.17c-.28-.63,1.92,7.82,1.89,7.34,3.78,11.44,11.07,21.58,21.13,29.88a58,58,0,0,0,37.87,13.9c2.13,0,3.94-.15,5.57-.26l.34,0,.35-.05a70.63,70.63,0,0,0,39.28-18.94,45.57,45.57,0,0,0,8.94-10.39,24.59,24.59,0,0,0,3.79-12.66,22.69,22.69,0,0,0-5.84-14.84C341.6,245.24,337.14,242.14,331.81,239.31Zm-34.28-48.86A48.37,48.37,0,0,1,288,209.61c-4.53,5.59-9.64,9.4-15.12,11.42C277.54,208.65,285.75,198.42,297.53,190.45Z"/></clipPath><linearGradient id="linear-gradient" x1="19.79" y1="193.48" x2="703.7" y2="193.48" gradientUnits="userSpaceOnUse"><stop offset="0" stop-color="#006dff"/><stop offset="0.11" stop-color="#0072f6"/><stop offset="0.28" stop-color="#0080df"/><stop offset="0.5" stop-color="#0097b9"/><stop offset="0.75" stop-color="#00b684"/><stop offset="1" stop-color="#00d949"/></linearGradient></defs><title>veeta logo</title><text class="cls-2" transform="translate(219.84 368.36) scale(0.92 1)">T<tspan class="cls-3" x="29.37" y="0">ogether </tspan><tspan class="cls-4" x="264.32" y="0">W</tspan><tspan class="cls-5" x="310.91" y="0">e </tspan><tspan class="cls-4" x="363.07" y="0">W</tspan><tspan class="cls-3" x="409.66" y="0">ork</tspan></text><g class="cls-6"><rect class="cls-7" x="19.79" y="-7.99" width="683.91" height="402.95"/></g></svg>